<?xml version="1.0" encoding="utf-8"?>
<!-- Generator: Adobe Illustrator 15.0.0, SVG Export Plug-In . SVG Version: 6.00 Build 0)  -->
<!DOCTYPE svg PUBLIC "-//W3C//DTD SVG 1.1//EN" "http://www.w3.org/Graphics/SVG/1.1/DTD/svg11.dtd">
<svg version="1.1" id="Layer_1" xmlns="http://www.w3.org/2000/svg" xmlns:xlink="http://www.w3.org/1999/xlink" x="0px" y="0px"
	 width="41.167px" height="47.388px" viewBox="17.444 14.481 41.167 47.388" enable-background="new 17.444 14.481 41.167 47.388"
	 xml:space="preserve">
<path fill="#FFFFFF" d="M52.635,35.48l0.016,0h0.412c2.905,0,5.268,2.332,5.268,5.198v0.03l0.004,0.03
	c0.191,2.509,0.285,5.13,0.277,7.794c0.008,2.668-0.086,5.289-0.277,7.798l-0.004,0.03v0.03c0,2.866-2.758,5.198-5.662,5.198h0.362
	c-4.64,0.194-9.949,0.287-15.001,0.278c-5.055,0.009-10.364-0.084-15.004-0.278h0.363c-2.905,0-5.664-2.332-5.664-5.198v-0.03
	l-0.002-0.03c-0.192-2.507-0.286-5.129-0.278-7.794c-0.008-2.668,0.085-5.29,0.278-7.798l0.002-0.03v-0.03
	c0-2.866,2.759-5.198,5.664-5.198l-0.363,0c4.639-0.194,9.949-0.287,15.001-0.278C43.082,35.193,47.996,35.286,52.635,35.48z
	 M50.669,47.514c0-0.574,0.088-0.984,0.265-1.232s0.467-0.373,0.873-0.373c0.387,0,0.67,0.125,0.846,0.373
	c0.177,0.248,0.266,0.658,0.266,1.232v1.385h-2.249V47.514z M55.537,51.024v-3.485c0-1.3-0.312-2.296-0.938-2.988
	c-0.625-0.693-1.52-1.039-2.685-1.039c-1.14,0-2.067,0.374-2.787,1.122c-0.72,0.749-1.079,1.716-1.079,2.905v6.145
	c0,1.318,0.328,2.354,0.982,3.107c0.655,0.752,1.553,1.129,2.691,1.129c1.268,0,2.22-0.355,2.857-1.065
	c0.639-0.71,0.957-1.767,0.957-3.171v-1.027h-2.619v0.951c0,0.805-0.084,1.326-0.252,1.562s-0.464,0.354-0.886,0.354
	c-0.405,0-0.692-0.14-0.86-0.418s-0.251-0.777-0.251-1.497v-2.583H55.537z M43.51,54.34c0,0.437-0.074,0.752-0.221,0.943
	c-0.146,0.192-0.377,0.289-0.688,0.289l-0.615-0.148l-0.603-0.48v-8.532l0.524-0.417l0.538-0.135c0.345,0,0.609,0.12,0.79,0.359
	c0.182,0.239,0.273,0.59,0.273,1.053V54.34z M43.646,43.685c-0.395,0-0.784,0.108-1.17,0.326s-0.75,0.535-1.093,0.953v-5.976h-2.57
	v18.561h2.57v-1.053c0.335,0.417,0.696,0.727,1.087,0.926c0.39,0.2,0.834,0.301,1.331,0.301c0.754,0,1.331-0.258,1.729-0.775
	c0.398-0.517,0.598-1.262,0.598-2.234v-7.596c0-1.119-0.213-1.971-0.637-2.555C45.068,43.977,44.453,43.685,43.646,43.685z
	 M33.784,54.25l-0.787,0.737c-0.286,0.192-0.522,0.288-0.71,0.288c-0.239,0-0.412-0.072-0.518-0.218s-0.16-0.38-0.16-0.704V43.857
	h-2.545v11.443c0,0.815,0.149,1.427,0.448,1.835c0.299,0.407,0.742,0.61,1.331,0.61c0.478,0,0.97-0.146,1.478-0.436
	c0.507-0.291,0.996-0.717,1.464-1.273v1.512h2.546V43.857h-2.546V54.25z M29.099,38.988h-8.798v2.694h2.966v15.866h2.866V41.683
	h2.966V38.988z M24.427,14.481h2.887l1.86,7.419h0.18l1.774-7.419h2.913L30.705,25.34v7.702h-2.867v-7.355L24.427,14.481z
	 M36.531,29.834c0,0.377,0.09,0.667,0.272,0.873c0.181,0.206,0.44,0.308,0.776,0.308c0.345,0,0.619-0.104,0.822-0.314
	c0.202-0.21,0.304-0.499,0.304-0.867v-7.457c0-0.299-0.104-0.541-0.31-0.725c-0.207-0.184-0.479-0.276-0.816-0.276
	c-0.311,0-0.563,0.092-0.757,0.276c-0.194,0.184-0.292,0.426-0.292,0.725V29.834z M33.911,22.48c0-1.061,0.343-1.905,1.028-2.533
	c0.686-0.629,1.606-0.943,2.764-0.943c1.053,0,1.917,0.332,2.588,0.994c0.674,0.663,1.01,1.516,1.01,2.559v7.072
	c0,1.172-0.33,2.091-0.99,2.758c-0.659,0.667-1.567,1-2.724,1c-1.113,0-2.005-0.344-2.673-1.033
	c-0.668-0.688-1.002-1.614-1.002-2.777V22.48z M50.728,19.35v13.692h-2.546V31.53c-0.469,0.557-0.957,0.981-1.465,1.272
	s-1,0.437-1.477,0.437c-0.589,0-1.033-0.204-1.331-0.612c-0.299-0.407-0.448-1.019-0.448-1.834V19.35h2.547v10.496
	c0,0.325,0.053,0.56,0.159,0.705s0.279,0.218,0.519,0.218c0.188,0,0.424-0.096,0.709-0.289l0.787-0.737V19.35H50.728z"/>
</svg>
