<?xml version="1.0" encoding="utf-8"?>
<!-- Generator: Adobe Illustrator 15.0.0, SVG Export Plug-In . SVG Version: 6.00 Build 0)  -->
<!DOCTYPE svg PUBLIC "-//W3C//DTD SVG 1.1//EN" "http://www.w3.org/Graphics/SVG/1.1/DTD/svg11.dtd">
<svg version="1.1" id="Layer_1" xmlns="http://www.w3.org/2000/svg" xmlns:xlink="http://www.w3.org/1999/xlink" x="0px" y="0px"
	 width="40.33px" height="32.775px" viewBox="19.418 23.196 40.33 32.775" enable-background="new 19.418 23.196 40.33 32.775"
	 xml:space="preserve">
<path fill="#FFFFFF" d="M59.748,27.076c-1.483,0.658-3.078,1.103-4.752,1.303c1.708-1.024,3.02-2.646,3.638-4.578
	c-1.599,0.948-3.369,1.637-5.254,2.008c-1.509-1.608-3.659-2.613-6.04-2.613c-4.568,0-8.273,3.705-8.273,8.274
	c0,0.648,0.072,1.28,0.214,1.886c-6.876-0.345-12.973-3.639-17.054-8.646c-0.712,1.222-1.12,2.644-1.12,4.16
	c0,2.871,1.461,5.403,3.681,6.887c-1.356-0.043-2.632-0.415-3.748-1.035c0,0.035,0,0.069,0,0.104c0,4.009,2.852,7.353,6.637,8.113
	c-0.694,0.189-1.425,0.29-2.18,0.29c-0.533,0-1.051-0.052-1.557-0.148c1.053,3.287,4.109,5.679,7.729,5.746
	c-2.832,2.22-6.399,3.542-10.276,3.542c-0.667,0-1.326-0.039-1.974-0.115c3.662,2.347,8.011,3.717,12.684,3.717
	c15.218,0,23.542-12.607,23.542-23.542c0-0.359-0.009-0.716-0.024-1.071C57.236,30.192,58.639,28.735,59.748,27.076z"/>
</svg>
