<?xml version="1.0" encoding="utf-8"?>
<!-- Generator: Adobe Illustrator 15.0.0, SVG Export Plug-In . SVG Version: 6.00 Build 0)  -->
<!DOCTYPE svg PUBLIC "-//W3C//DTD SVG 1.1//EN" "http://www.w3.org/Graphics/SVG/1.1/DTD/svg11.dtd">
<svg version="1.1" id="Layer_1" xmlns="http://www.w3.org/2000/svg" xmlns:xlink="http://www.w3.org/1999/xlink" x="0px" y="0px"
	 width="38px" height="36.156px" viewBox="19 19.844 38 36.156" enable-background="new 19 19.844 38 36.156" xml:space="preserve">
<path fill="#FFFFFF" d="M19,56h9V31.5h-9 M23.611,19.844c-2.788,0-4.611,1.829-4.611,4.232c0,2.353,1.771,4.235,4.502,4.235h0.055
	c2.841,0,4.608-1.883,4.608-4.235C28.112,21.673,26.398,19.844,23.611,19.844z M57,42.107V56h-8V43c0-3.293-1.322-5.492-4.271-5.492
	c-2.25,0-3.589,1.514-4.179,2.979C40.336,41.012,40,41.767,40,42.5V56h-8c0,0,0-21,0-24.5h8v3.75l0,0l0.28-0.042v-0.08
	c1.082-1.667,3.015-4.049,7.341-4.049C52.982,31.079,57,34.582,57,42.107z"/>
</svg>
