<?xml version="1.0" encoding="utf-8"?>
<!-- Generator: Adobe Illustrator 15.0.0, SVG Export Plug-In . SVG Version: 6.00 Build 0)  -->
<!DOCTYPE svg PUBLIC "-//W3C//DTD SVG 1.1//EN" "http://www.w3.org/Graphics/SVG/1.1/DTD/svg11.dtd">
<svg version="1.1" id="Layer_1" xmlns="http://www.w3.org/2000/svg" xmlns:xlink="http://www.w3.org/1999/xlink" x="0px" y="0px"
	 width="49.614px" height="38.038px" viewBox="13.193 19 49.614 38.038" enable-background="new 13.193 19 49.614 38.038"
	 xml:space="preserve">
<path fill="#FFFFFF" d="M49.416,19c0.645,1.465,1.062,3.897,0.439,5.679c2.55,2.177,3.426,7.47,2.195,11.793
	c3.635,0.278,7.963-0.133,10.756,0.982c-2.611-0.335-6.178-0.995-9.547-0.765c-0.639,0.043-1.584-0.024-1.538,0.874
	c3.899,0.306,7.774,0.639,10.978,1.638c-3.176-0.518-7.031-1.308-10.978-1.418c-1.63,3.217-4.911,4.797-9.439,5.13
	c0.487,1.06,1.419,1.463,1.647,3.167c0.34,2.545-0.531,6.274,0.327,7.971c0.413,0.812,1.085,0.835,1.538,1.529
	c-1.109,1.313-3.859-0.146-4.172-1.529c-0.537-2.367,0.816-6.038-0.658-7.643c0.104,2.582-0.611,6.209,0.109,8.516
	c0.284,0.908,1.104,1.258,0.879,2.076c-5.155,0.523-3.002-6.673-3.844-10.92c-0.777,0.056-0.437,1.165-0.438,1.639
	c-0.022,4.147,0.849,9.836-3.622,9.281c-0.132-0.871,0.599-1.168,0.877-1.965c0.816-2.334-0.153-5.811,0.222-8.627
	c-1.707,1.285,0.179,5.777-0.879,8.08c-0.61,1.324-2.572,1.901-4.061,1.309c0.193-0.986,1.213-0.826,1.645-1.746
	c0.604-1.281,0.004-3.127,0.22-5.022c-3.159,0.63-5.608-0.091-6.806-2.075c-0.537-0.891-0.67-1.939-1.318-2.729
	c-0.645-0.79-1.675-0.896-1.975-1.965c3.912-0.941,4.061,4.025,7.575,4.148c1.077,0.039,1.637-0.312,2.634-0.545
	c0.279-1.253,0.876-2.188,1.756-2.842c-4.37-0.598-7.98-1.959-9.659-5.239c-3.974,0.196-7.61,0.727-10.978,1.528
	c3.057-1.11,6.827-1.509,10.868-1.639c-0.238-1.432-2.326-1.038-3.623-0.982c-2.408,0.106-5.44,0.406-7.355,0.765
	c2.776-0.99,6.669-0.866,10.429-0.874c-1.149-3.605-0.751-9.333,1.757-11.465c-0.711-1.791-0.49-4.721,0.439-6.116
	c2.799,0.126,4.498,1.347,6.256,2.513c2.182-0.621,4.476-0.929,7.464-0.766c1.257,0.07,2.564,0.635,3.511,0.545
	c0.93-0.087,1.953-1.129,2.854-1.527C47.078,19.246,48.072,19.048,49.416,19z"/>
</svg>
