<?xml version="1.0" encoding="utf-8"?>
<!-- Generator: Adobe Illustrator 15.0.0, SVG Export Plug-In . SVG Version: 6.00 Build 0)  -->
<!DOCTYPE svg PUBLIC "-//W3C//DTD SVG 1.1//EN" "http://www.w3.org/Graphics/SVG/1.1/DTD/svg11.dtd">
<svg version="1.1" id="Layer_1" xmlns="http://www.w3.org/2000/svg" xmlns:xlink="http://www.w3.org/1999/xlink" x="0px" y="0px"
	 width="40px" height="31.137px" viewBox="0 0 40 31.137" enable-background="new 0 0 40 31.137" xml:space="preserve">
<g>
	<path d="M23.229,6.352c1.473,0,2.672-1.191,2.672-2.665c0-1.471-1.199-2.668-2.672-2.668c-1.471,0-2.669,1.199-2.669,2.668
		C20.562,5.161,21.758,6.352,23.229,6.352"/>
	<path d="M23.344,12.828c-0.389,0.009-0.807-0.185-1.113-0.667l-1.731-2.715l-3.577,3.543l3.316,1.746
		c1.363,0.654,1.158,1.85,1.158,1.85v7.512c0,0.85-0.688,1.543-1.539,1.543c-0.85,0-1.536-0.695-1.536-1.543v-6.012l-5.749-3.195
		c-0.685-0.382-1.151-1.117-1.151-1.953c0-0.574,0.211-1.1,0.575-1.492l5.644-5.656c0.695-0.792,1.677-0.665,1.677-0.665
		c1.18,0,1.801,1.032,1.801,1.032l2.928,4.594L28.5,10.74c1.598,0,1.598,2.088,0,2.088H23.344z"/>
	<path d="M30.447,15.864c-4.02,0-7.279,3.252-7.279,7.275c0,4.025,3.262,7.277,7.279,7.277c4.012,0,7.271-3.256,7.271-7.277
		C37.719,19.114,34.459,15.864,30.447,15.864z M30.443,28.432c-2.92,0-5.291-2.367-5.291-5.293c0-2.922,2.371-5.291,5.291-5.291
		c2.918,0,5.293,2.369,5.293,5.291C35.736,26.065,33.361,28.432,30.443,28.432z"/>
	<path d="M9.552,15.864c-4.009,0-7.271,3.254-7.271,7.275s3.263,7.277,7.271,7.277c4.024,0,7.282-3.256,7.282-7.277
		C16.834,19.116,13.575,15.864,9.552,15.864z M9.553,28.432c-2.917,0-5.288-2.371-5.286-5.293c0-2.92,2.369-5.291,5.286-5.291
		c2.923,0,5.297,2.371,5.297,5.291C14.85,26.061,12.478,28.432,9.553,28.432z"/>
</g>
</svg>
