<?xml version="1.0" encoding="utf-8"?>
<!-- Generator: Adobe Illustrator 15.0.0, SVG Export Plug-In . SVG Version: 6.00 Build 0)  -->
<!DOCTYPE svg PUBLIC "-//W3C//DTD SVG 1.1//EN" "http://www.w3.org/Graphics/SVG/1.1/DTD/svg11.dtd">
<svg version="1.1" id="Layer_1" xmlns="http://www.w3.org/2000/svg" xmlns:xlink="http://www.w3.org/1999/xlink" x="0px" y="0px"
	 width="39px" height="34px" viewBox="0 0 39 34" enable-background="new 0 0 39 34" xml:space="preserve">
<path fill="#FFFFFF" d="M6.925,4.683c-1.195,0-2.161,0.962-2.161,2.159c0,1.189,0.966,2.161,2.161,2.161
	c1.192,0,2.158-0.972,2.158-2.161C9.083,5.645,8.117,4.683,6.925,4.683z M20.329,4.683c-1.193,0-2.159,0.962-2.159,2.159
	c0,1.189,0.966,2.161,2.159,2.161c1.196,0,2.161-0.972,2.161-2.161C22.49,5.645,21.525,4.683,20.329,4.683z M31.771,10.892
	l-5.043,3.33h-3.058l0.088-1.081h-1.444c2.668-0.899,4.593-3.418,4.593-6.391c0-3.726-3.022-6.75-6.75-6.75
	c-3.471,0-6.325,2.621-6.704,5.987C13.074,2.621,10.222,0,6.75,0C3.021,0,0,3.024,0,6.75c0,2.973,1.923,5.492,4.592,6.391H4.321
	V18.9l0.451,8.553l18.449-0.184v-2.16L27,25.202l6.027,2.606V10.892H31.771z M2.972,6.842c0-2.189,1.771-3.965,3.96-3.965
	s3.962,1.776,3.962,3.965c0,2.185-1.772,3.957-3.962,3.957C4.744,10.799,2.972,9.027,2.972,6.842z M8.908,13.141
	c2.438-0.822,4.25-2.993,4.546-5.628c0.297,2.635,2.109,4.806,4.547,5.628H8.908z M16.378,6.842c0-2.189,1.771-3.965,3.96-3.965
	c2.189,0,3.96,1.776,3.96,3.965c0,2.185-1.771,3.957-3.96,3.957C18.149,10.799,16.378,9.027,16.378,6.842z"/>
</svg>
