<?xml version="1.0" encoding="utf-8"?>
<!-- Generator: Adobe Illustrator 15.0.0, SVG Export Plug-In . SVG Version: 6.00 Build 0)  -->
<!DOCTYPE svg PUBLIC "-//W3C//DTD SVG 1.1//EN" "http://www.w3.org/Graphics/SVG/1.1/DTD/svg11.dtd">
<svg version="1.1" id="Layer_1" xmlns="http://www.w3.org/2000/svg" xmlns:xlink="http://www.w3.org/1999/xlink" x="0px" y="0px"
	 width="28px" height="29px" viewBox="0 0 28 29" enable-background="new 0 0 28 29" xml:space="preserve">
<path fill="#FFFFFF" d="M9.392,25.709l2.771-2.186v-6.438h-0.186c-0.042,0-0.113,0.021-0.217,0.062L0,20.998v-3.266l12.069-7.39
	V1.139c0-0.184,0.056-0.343,0.169-0.478c0.113-0.134,0.246-0.25,0.401-0.354c0.152-0.101,0.322-0.179,0.508-0.229
	C13.332,0.024,13.496,0,13.64,0c0.657,0,1.129,0.268,1.418,0.801c0.041,0.062,0.08,0.138,0.121,0.23
	c0.041,0.092,0.062,0.158,0.062,0.199v9.176l12.285,7.357v3.232l-12.223-3.973v6.526l2.801,2.155v2.646l-4.125-1.293h-0.493
	l-4.095,1.293V25.709z"/>
</svg>
